<?xml version="1.0" standalone="no"?>
<!DOCTYPE svg PUBLIC "-//W3C//DTD SVG 20010904//EN"
 "http://www.w3.org/TR/2001/REC-SVG-20010904/DTD/svg10.dtd">
<svg version="1.0" xmlns="http://www.w3.org/2000/svg"
 width="221.000000pt" height="221.000000pt" viewBox="0 0 221.000000 221.000000"
 preserveAspectRatio="xMidYMid meet">
<metadata>
Created by potrace 1.14, written by Peter Selinger 2001-2017
</metadata>
<g transform="translate(0.000000,221.000000) scale(0.100000,-0.100000)"
fill="#000000" stroke="none">
<path d="M975 2203 c-11 -2 -56 -11 -100 -19 -228 -44 -471 -192 -620 -379
-22 -27 -43 -52 -46 -55 -3 -3 -22 -33 -42 -67 -231 -383 -211 -867 51 -1219
145 -196 355 -346 575 -409 169 -49 396 -55 560 -16 557 133 922 665 841 1224
-65 444 -384 800 -820 913 -79 21 -127 26 -239 29 -77 1 -149 0 -160 -2z"/>
</g>
</svg>
